<svg id="Layer_1" height="512" viewBox="0 0 64 64" width="512" xmlns="http://www.w3.org/2000/svg"><g><path d="m49.041 29.321h-2.174c-.313-1.404-.867-2.715-1.616-3.892l1.54-1.54c.756-.756.756-1.994 0-2.752l-1.032-1.031c-.36-.36-.828-.543-1.302-.56v-.006h-5.914v.75c-.317-.098-.639-.188-.968-.26v-2.174c0-1.07-.875-1.945-1.946-1.945h-6.566v5.313c-.248.135-.494.271-.731.422l-1.54-1.539c-.38-.381-.883-.568-1.384-.566h-5.822l-.015 24.914h5.835c.502.002 1.004-.186 1.385-.566l1.54-1.539c.237.15.483.287.731.422v5.313h6.566c1.07 0 1.946-.877 1.946-1.945v-2.174c.323-.072.64-.158.953-.256v.746h5.868c.494-.004.988-.191 1.363-.566l1.032-1.031c.757-.758.757-1.996 0-2.752l-1.54-1.54c.749-1.178 1.303-2.487 1.616-3.893h2.173c1.07 0 1.946-.876 1.946-1.946v-1.459c.001-1.073-.874-1.948-1.944-1.948z" fill="#52b8d9"/><path d="m35.629 48.583h-6.566c-.276 0-.5-.224-.5-.5v-5.018c-.051-.028-.103-.058-.154-.087l-1.263 1.263c-.46.46-1.074.713-1.731.713-.003 0-.006 0-.01 0h-5.833c-.133 0-.26-.053-.354-.146-.094-.094-.146-.221-.146-.354l.015-24.914c0-.276.224-.5.5-.5h5.822.01c.654 0 1.268.253 1.728.713l1.263 1.263c.051-.029.102-.059.153-.087v-5.018c0-.276.224-.5.5-.5h6.566c1.349 0 2.446 1.097 2.446 2.445v1.507c.071-.189.254-.323.468-.323h5.914c.036 0 .07.004.104.011.591.042 1.139.289 1.552.702l1.032 1.031c.953.955.953 2.507 0 3.459l-1.261 1.261c.617 1.041 1.079 2.153 1.377 3.317h1.779c1.349 0 2.446 1.097 2.446 2.445v1.459c0 1.349-1.097 2.446-2.446 2.446h-1.779c-.298 1.163-.761 2.276-1.378 3.318l1.261 1.261c.953.952.953 2.504 0 3.459l-1.032 1.031c-.455.455-1.063.708-1.713.713h-5.872c-.2 0-.373-.117-.453-.287v1.471c.001 1.349-1.096 2.446-2.445 2.446zm-6.066-1h6.066c.797 0 1.446-.648 1.446-1.445v-2.174c0-.234.163-.437.391-.488.31-.069.613-.151.913-.245.152-.047.317-.02.445.074.128.095.204.244.204.403v.246h5.368c.382-.003.742-.152 1.01-.42l1.032-1.031c.563-.564.564-1.481 0-2.045l-1.54-1.54c-.166-.166-.194-.424-.068-.622.734-1.155 1.256-2.411 1.55-3.732.051-.229.254-.392.488-.392h2.173c.797 0 1.446-.648 1.446-1.446v-1.459c0-.797-.648-1.445-1.446-1.445h-2.174c-.234 0-.437-.163-.488-.392-.294-1.322-.815-2.578-1.549-3.731-.126-.198-.097-.456.068-.622l1.54-1.54c.563-.563.563-1.48 0-2.045l-1.032-1.031c-.253-.254-.597-.4-.967-.414-.02-.001-.039-.003-.058-.006h-5.337v.25c0 .158-.075.308-.203.402-.127.095-.292.124-.444.075-.305-.094-.613-.18-.928-.249-.229-.051-.393-.254-.393-.488v-2.174c0-.797-.648-1.445-1.446-1.445h-6.066v4.813c0 .184-.1.352-.261.439-.238.129-.474.26-.702.404-.197.126-.456.098-.622-.068l-1.54-1.539c-.271-.271-.633-.42-1.022-.42-.002 0-.004 0-.006 0h-5.324l-.014 23.914h5.334c.424.017.76-.148 1.032-.42l1.54-1.539c.166-.167.425-.194.622-.068.228.145.464.275.702.404.161.088.261.256.261.439v4.812z" fill="#63312d"/><path d="m43.204 29.321h-2.174c-.313-1.404-.867-2.715-1.616-3.892l1.54-1.54c.757-.756.757-1.994 0-2.752l-1.032-1.031c-.757-.758-1.995-.758-2.751 0l-1.54 1.539c-1.178-.748-2.488-1.303-3.892-1.615v-2.174c0-1.07-.875-1.945-1.946-1.945h-1.459c-1.07 0-1.945.875-1.945 1.945v2.174c-1.404.313-2.715.867-3.893 1.615l-1.539-1.539c-.757-.756-1.995-.756-2.751 0l-1.033 1.033c-.756.756-.756 1.994 0 2.751l1.539 1.54c-.748 1.177-1.303 2.486-1.615 3.891h-2.174c-1.07 0-1.946.875-1.946 1.945v1.459c0 1.07.876 1.946 1.946 1.946h2.173c.313 1.404.868 2.714 1.616 3.892l-1.539 1.54c-.756.757-.756 1.995 0 2.751l1.032 1.033c.757.756 1.995.756 2.751 0l1.54-1.539c1.178.748 2.488 1.303 3.893 1.615v2.174c0 1.068.876 1.945 1.945 1.945h1.459c1.07 0 1.946-.877 1.946-1.945v-2.174c1.404-.313 2.714-.867 3.892-1.615l1.539 1.539c.757.756 1.995.756 2.752 0l1.032-1.031c.757-.758.757-1.996.001-2.752l-1.54-1.54c.749-1.178 1.304-2.487 1.617-3.893h2.173c1.07 0 1.946-.876 1.946-1.946v-1.459c-.002-1.07-.877-1.945-1.947-1.945z" fill="#84dbff"/><path d="m28.388 20.03v-2.174c0-.979.733-1.785 1.675-1.918-.089-.014-.178-.027-.271-.027h-1.459c-1.07 0-1.945.875-1.945 1.945v2.174z" fill="#caf4ff"/><path d="m18.711 25.431c-.748 1.177-1.303 2.486-1.615 3.891h2c.313-1.404.867-2.714 1.615-3.891l-1.539-1.54c-.756-.757-.756-1.995 0-2.751l1.033-1.033c.114-.114.243-.205.376-.285-.747-.447-1.733-.357-2.376.285l-1.033 1.033c-.756.756-.756 1.994 0 2.751z" fill="#caf4ff"/><path d="m28.388 46.138v-2.174h-2v2.174c0 1.068.876 1.945 1.945 1.945h1.459c.093 0 .181-.016.271-.027-.942-.135-1.675-.942-1.675-1.918z" fill="#caf4ff"/><path d="m20.204 43.888-1.032-1.033c-.756-.756-.756-1.994 0-2.751l1.539-1.54c-.748-1.178-1.303-2.487-1.616-3.892h-2c.313 1.404.868 2.714 1.616 3.892l-1.539 1.54c-.756.757-.756 1.995 0 2.751l1.032 1.033c.642.643 1.628.732 2.375.285-.132-.08-.26-.172-.375-.285z" fill="#caf4ff"/><path d="m14.976 32.725v-1.459c0-1.07.876-1.945 1.946-1.945h-2c-1.07 0-1.946.875-1.946 1.945v1.459c0 1.07.876 1.946 1.946 1.946h2c-1.07.001-1.946-.875-1.946-1.946z" fill="#caf4ff"/><path d="m29.792 48.583h-1.459c-1.348 0-2.445-1.097-2.445-2.445v-1.779c-1.164-.298-2.276-.76-3.318-1.377l-1.261 1.26c-.953.952-2.504.954-3.458 0l-1.032-1.033c-.46-.46-.714-1.074-.714-1.729s.253-1.269.714-1.729l1.261-1.261c-.617-1.042-1.08-2.154-1.377-3.317h-1.779c-1.349 0-2.446-1.098-2.446-2.446v-1.459c0-1.349 1.097-2.445 2.446-2.445h1.779c.298-1.163.76-2.275 1.377-3.316l-1.261-1.261c-.46-.461-.714-1.074-.714-1.729 0-.654.253-1.269.714-1.729l1.033-1.033c.953-.952 2.504-.952 3.458 0l1.26 1.26c1.042-.617 2.155-1.079 3.318-1.377v-1.779c0-1.349 1.097-2.445 2.445-2.445h1.459c1.349 0 2.446 1.097 2.446 2.445v1.779c1.163.298 2.276.76 3.317 1.377l1.261-1.26c.92-.922 2.537-.922 3.458 0l1.032 1.031c.46.461.714 1.075.714 1.73 0 .654-.253 1.269-.714 1.729l-1.261 1.261c.617 1.041 1.08 2.153 1.378 3.317h1.779c1.349 0 2.446 1.097 2.446 2.445v1.459c0 1.349-1.097 2.446-2.446 2.446h-1.779c-.298 1.164-.761 2.276-1.378 3.318l1.261 1.261c.46.46.714 1.074.714 1.729s-.254 1.27-.714 1.73l-1.032 1.031c-.954.953-2.505.953-3.459 0l-1.26-1.26c-1.042.617-2.154 1.079-3.317 1.377v1.779c0 1.348-1.097 2.445-2.446 2.445zm-7.297-6.734c.093 0 .186.025.268.078 1.155.733 2.412 1.255 3.733 1.549.229.051.392.254.392.488v2.174c0 .797.648 1.445 1.445 1.445h1.459c.797 0 1.446-.648 1.446-1.445v-2.174c0-.234.163-.438.392-.488 1.321-.294 2.577-.815 3.732-1.549.197-.126.456-.099.622.068l1.539 1.539c.563.562 1.481.563 2.045 0l1.032-1.031c.271-.271.421-.636.421-1.023s-.149-.75-.421-1.021l-1.54-1.54c-.166-.166-.194-.424-.068-.622.734-1.154 1.256-2.41 1.55-3.732.051-.229.254-.392.488-.392h2.173c.797 0 1.446-.648 1.446-1.446v-1.459c0-.797-.648-1.445-1.446-1.445h-2.173c-.234 0-.437-.163-.488-.392-.294-1.322-.815-2.578-1.55-3.731-.126-.198-.097-.456.068-.622l1.54-1.54c.271-.271.421-.634.421-1.021s-.149-.752-.421-1.023l-1.032-1.031c-.543-.545-1.501-.545-2.043 0l-1.541 1.539c-.166.166-.424.194-.622.068-1.156-.733-2.412-1.255-3.732-1.549-.229-.051-.392-.254-.392-.488v-2.174c0-.797-.648-1.445-1.446-1.445h-1.459c-.797 0-1.445.648-1.445 1.445v2.174c0 .234-.163.438-.392.488-1.321.294-2.578.815-3.733 1.549-.198.126-.456.098-.622-.068l-1.539-1.539c-.564-.563-1.481-.563-2.044 0l-1.033 1.033c-.271.271-.421.634-.421 1.021s.149.751.421 1.022l1.54 1.54c.166.166.194.424.068.622-.734 1.154-1.255 2.409-1.549 3.73-.051.229-.254.392-.488.392h-2.174c-.797 0-1.446.648-1.446 1.445v1.459c0 .798.648 1.446 1.446 1.446h2.173c.234 0 .437.163.488.392.295 1.32.816 2.576 1.55 3.731.125.198.097.456-.068.622l-1.54 1.54c-.271.271-.421.635-.421 1.022s.149.75.421 1.021l1.032 1.033c.564.563 1.481.562 2.044 0l1.54-1.539c.097-.097.225-.146.354-.146z" fill="#63312d"/><path d="m38.71 31.997c0 5.328-4.319 9.648-9.647 9.648-5.329 0-9.647-4.319-9.647-9.648 0-5.328 4.319-9.648 9.647-9.648s9.647 4.32 9.647 9.648z" fill="#f9dd9d"/><path d="m35.648 31.997c0 3.637-2.948 6.585-6.585 6.585s-6.585-2.948-6.585-6.585 2.948-6.586 6.585-6.586 6.585 2.949 6.585 6.586z" fill="#f9a287"/><path d="m24.478 31.997c0-3.296 2.424-6.019 5.585-6.502-.327-.05-.659-.084-1-.084-3.637 0-6.585 2.949-6.585 6.586s2.948 6.585 6.585 6.585c.341 0 .673-.034 1-.084-3.161-.482-5.585-3.205-5.585-6.501z" fill="#ffc8bb"/><path d="m29.063 39.082c-3.907 0-7.085-3.179-7.085-7.085 0-3.907 3.178-7.086 7.085-7.086s7.085 3.179 7.085 7.086c0 3.906-3.178 7.085-7.085 7.085zm0-13.171c-3.355 0-6.085 2.73-6.085 6.086s2.729 6.085 6.085 6.085 6.085-2.729 6.085-6.085-2.73-6.086-6.085-6.086z" fill="#63312d"/><path d="m21.416 31.997c0-4.99 3.789-9.096 8.647-9.596-.329-.034-.662-.053-1-.053-5.329 0-9.647 4.32-9.647 9.648s4.319 9.648 9.647 9.648c.338 0 .671-.019 1-.052-4.858-.499-8.647-4.605-8.647-9.595z" fill="#ffeecf"/><path d="m29.063 42.145c-5.595 0-10.147-4.552-10.147-10.147s4.552-10.148 10.147-10.148 10.147 4.551 10.147 10.147-4.552 10.148-10.147 10.148zm0-19.296c-5.044 0-9.147 4.104-9.147 9.148s4.104 9.147 9.147 9.147 9.147-4.104 9.147-9.147c0-5.045-4.103-9.148-9.147-9.148z" fill="#63312d"/><path d="m7.963 43.405c.112-.045.214-.091.314-.147.942-.533 1.381-1.688.987-2.729-.894-2.368-1.406-4.846-1.525-7.367-.057-1.233-1.103-2.184-2.333-2.128-1.234.058-2.184 1.104-2.125 2.338.14 2.99.749 5.926 1.805 8.732.438 1.153 1.726 1.734 2.877 1.301z" fill="#f9dd9d"/><path d="m7.087 42.104c-1.056-2.807-1.665-5.742-1.805-8.732-.043-.907.461-1.709 1.221-2.096-.33-.165-.701-.26-1.096-.242-1.234.058-2.184 1.104-2.125 2.338.14 2.99.749 5.926 1.805 8.732.437 1.153 1.725 1.734 2.876 1.302.077-.031.146-.066.215-.102-.483-.242-.884-.655-1.091-1.2z" fill="#ffeecf"/><path d="m7.498 27.032c.5-.283.894-.762 1.057-1.362.658-2.444 1.688-4.759 3.062-6.884.669-1.033.372-2.415-.663-3.083-1.035-.671-2.417-.372-3.087.661-1.623 2.512-2.841 5.249-3.622 8.143-.321 1.19.381 2.415 1.574 2.736.59.162 1.186.067 1.679-.211z" fill="#f9dd9d"/><path d="m6.245 24.507c.781-2.894 1.999-5.631 3.622-8.143.223-.345.53-.599.872-.772-1.005-.506-2.247-.192-2.872.772-1.623 2.512-2.841 5.249-3.622 8.143-.321 1.19.381 2.415 1.574 2.736.549.151 1.101.072 1.573-.163-.927-.468-1.428-1.533-1.147-2.573z" fill="#ffeecf"/><path d="m12.979 47.087c-.767-.967-2.167-1.134-3.135-.362-.967.765-1.131 2.169-.366 3.135 1.86 2.35 4.068 4.381 6.562 6.041.725.483 1.627.486 2.336.085.296-.168.558-.403.759-.706.683-1.024.403-2.409-.621-3.095-2.104-1.4-3.967-3.117-5.535-5.098z" fill="#f9a287"/><path d="m18.041 55.9c-2.494-1.66-4.702-3.691-6.562-6.041-.765-.966-.601-2.37.366-3.135.12-.096.248-.177.379-.244-.75-.375-1.677-.315-2.379.244-.967.765-1.131 2.169-.366 3.135 1.86 2.35 4.068 4.381 6.562 6.041.697.464 1.554.476 2.25.119-.083-.04-.171-.066-.25-.119z" fill="#ffc8bb"/><path d="m32.832 56.253c-2.523.086-5.039-.222-7.477-.915-1.187-.337-2.421.353-2.757 1.536-.337 1.187.353 2.422 1.539 2.76 2.882.817 5.859 1.184 8.846 1.083.372-.012.719-.118 1.023-.29.699-.396 1.162-1.157 1.132-2.017-.041-1.232-1.074-2.199-2.306-2.157z" fill="#f9a287"/><path d="m26.136 59.634c-1.186-.338-1.875-1.573-1.539-2.76.188-.66.66-1.158 1.242-1.418-.161-.043-.324-.072-.485-.118-1.187-.337-2.421.353-2.757 1.536-.337 1.187.353 2.422 1.539 2.76 2.882.817 5.859 1.184 8.846 1.083.022-.001.042-.009.065-.011-2.335-.078-4.652-.432-6.911-1.072z" fill="#ffc8bb"/><path d="m57.005 17.843c-7.423-13.122-23.685-18.163-37.127-11.903l-.902-1.358c-.609-.916-1.506-.861-1.995.125l-3.421 6.889c-.49.986.009 1.736 1.106 1.666l7.676-.481c1.098-.069 1.498-.876.891-1.792l-.852-1.28c11.228-4.854 24.582-.55 30.735 10.334 6.59 11.648 2.473 26.487-9.178 33.075-1.188.673-2.438 1.249-3.714 1.712-1.157.412-1.758 1.697-1.338 2.856.419 1.156 1.699 1.758 2.857 1.34 1.51-.548 2.988-1.228 4.392-2.021 13.794-7.802 18.669-25.371 10.87-39.162z" fill="#84dbff"/><path d="m15.487 12.132 3.421-6.894c.074-.148.163-.271.253-.379l-.185-.277c-.609-.916-1.506-.861-1.995.125l-3.421 6.889c-.49.986.009 1.736 1.106 1.666l.714-.046c-.122-.288-.103-.663.107-1.084z" fill="#caf4ff"/><path d="m40.814 58.221c-.42-1.16.181-2.443 1.339-2.857 1.275-.465 2.525-1.038 3.713-1.711 11.65-6.589 15.768-21.426 9.178-33.075-3.484-6.16-9.274-10.208-15.679-11.686 5.627 1.792 10.623 5.614 13.752 11.149 6.59 11.648 2.473 26.487-9.178 33.075-1.188.673-2.438 1.249-3.714 1.712-1.157.412-1.758 1.697-1.338 2.856.381 1.051 1.47 1.634 2.534 1.422-.262-.237-.479-.532-.607-.885z" fill="#caf4ff"/><g fill="#63312d"><path d="m40.99 59.658c-1.119 0-2.17-.692-2.573-1.802-.25-.689-.215-1.434.098-2.098.311-.659.859-1.157 1.542-1.4 1.248-.453 2.472-1.017 3.635-1.676 5.519-3.121 9.494-8.213 11.194-14.339s.917-12.538-2.205-18.056c-5.892-10.423-18.509-14.801-29.548-10.351l.516.775c.391.59.474 1.214.226 1.713s-.795.811-1.501.855l-7.677.481c-.703.046-1.288-.194-1.596-.658-.309-.465-.305-1.095.011-1.729l3.421-6.889c.314-.634.813-1.017 1.368-1.052.556-.038 1.099.283 1.492.873l.666 1.004c13.643-6.112 29.994-.769 37.381 12.288 7.936 14.032 2.975 31.906-11.059 39.844-1.425.805-2.928 1.496-4.467 2.055-.305.109-.617.162-.924.162zm-8.972-52.453c8.676 0 17.007 4.584 21.534 12.591 3.253 5.75 4.069 12.432 2.298 18.815s-5.914 11.689-11.665 14.941c-1.211.687-2.487 1.273-3.79 1.746-.434.155-.78.47-.976.887-.198.421-.221.893-.062 1.329.325.897 1.319 1.365 2.217 1.04 1.486-.539 2.938-1.207 4.315-1.985 13.553-7.665 18.345-24.928 10.681-38.48-7.203-12.732-23.227-17.868-36.481-11.695-.226.105-.492.028-.627-.177l-.902-1.359c-.189-.284-.411-.463-.596-.428-.188.012-.384.193-.535.499l-3.421 6.889c-.152.306-.179.571-.074.73.105.158.359.24.7.214l7.677-.481c.34-.021.584-.132.668-.302.084-.171.025-.431-.163-.715l-.852-1.279c-.082-.124-.105-.277-.063-.419.042-.143.145-.259.281-.317 3.202-1.384 6.545-2.044 9.836-2.044z"/><path d="m7.182 44.048c-1.105 0-2.149-.675-2.563-1.768-1.077-2.861-1.695-5.851-1.837-8.886-.034-.73.218-1.43.709-1.97s1.164-.856 1.893-.89c1.52-.058 2.787 1.1 2.856 2.604.116 2.472.619 4.898 1.493 7.214.479 1.269-.029 2.674-1.209 3.342-.119.067-.241.122-.374.176-.003.002-.007.003-.011.004-.315.117-.639.174-.957.174zm-1.673-12.517c-.026 0-.053 0-.08.001-.462.022-.888.223-1.199.564-.312.343-.471.787-.449 1.251.137 2.931.734 5.817 1.773 8.58.337.891 1.338 1.341 2.227 1.012.088-.036.17-.072.25-.117.735-.416 1.064-1.326.766-2.117-.912-2.413-1.436-4.943-1.557-7.521-.042-.927-.811-1.653-1.731-1.653z"/><path d="m6.405 27.822c-.24 0-.482-.032-.719-.097-.704-.189-1.292-.643-1.656-1.275-.363-.633-.458-1.369-.269-2.073.793-2.941 2.033-5.729 3.685-8.284.397-.612 1.008-1.034 1.721-1.187.715-.156 1.445-.019 2.058.377.612.396 1.034 1.006 1.188 1.72.153.713.02 1.443-.376 2.055-1.346 2.083-2.355 4.352-2.999 6.742-.194.713-.653 1.305-1.294 1.668-.416.235-.875.354-1.339.354zm3.34-11.977c-.122 0-.245.013-.367.039-.453.097-.84.364-1.092.752-1.595 2.469-2.792 5.161-3.559 8.001-.121.447-.061.914.17 1.315.23.4.604.688 1.051.809.439.12.901.063 1.303-.164.406-.229.698-.605.821-1.058.67-2.49 1.722-4.854 3.124-7.024.251-.388.336-.85.239-1.302s-.365-.839-.753-1.09c-.284-.184-.607-.278-.937-.278z"/><path d="m17.277 56.777c-.528 0-1.054-.154-1.513-.461-2.541-1.691-4.788-3.76-6.677-6.146-.453-.572-.656-1.286-.571-2.012.085-.725.447-1.373 1.019-1.826.568-.453 1.279-.662 2.003-.575.726.082 1.377.444 1.833 1.02 1.537 1.943 3.361 3.623 5.42 4.992 1.254.839 1.594 2.538.76 3.788-.239.359-.551.65-.928.863-.42.238-.884.357-1.346.357zm-6.05-10.039c-.388 0-.762.131-1.071.377-.364.288-.594.699-.647 1.159s.075.912.362 1.274c1.824 2.305 3.994 4.302 6.447 5.936.547.363 1.241.39 1.813.065.239-.135.437-.319.588-.547.529-.793.313-1.871-.483-2.402-2.146-1.427-4.046-3.178-5.649-5.203-.29-.365-.703-.595-1.164-.647-.065-.008-.131-.012-.196-.012z"/><path d="m32.014 61.233c-2.703 0-5.395-.375-8.015-1.118-1.45-.413-2.295-1.929-1.883-3.378.411-1.449 1.924-2.29 3.375-1.881 2.388.68 4.854.988 7.323.896l.017.5-.017-.5c.735-.019 1.426.237 1.959.735.533.499.84 1.176.864 1.905.036 1.019-.496 1.965-1.386 2.469-.393.222-.814.341-1.254.354-.327.013-.655.018-.983.018zm-7.269-5.48c-.755 0-1.451.497-1.667 1.258-.261.919.275 1.88 1.195 2.143 2.838.805 5.764 1.163 8.692 1.063.277-.009.544-.084.794-.226.564-.319.9-.918.878-1.563-.016-.464-.21-.893-.548-1.209-.339-.317-.798-.489-1.241-.466-2.578.09-5.144-.227-7.631-.935-.157-.044-.316-.065-.472-.065z"/></g></g></svg>